# xmcd CD database file generated by Grip 3.3.1
# 
# Track frame offsets:
#       150
#       15622
#       31207
#       48087
#       58710
#       68747
#       71457
#       85477
#       102032
#       104125
#       120620
#       135425
#       157905
#       161072
#       178930
#       193310
# 
# Disc length: 2883 seconds
# 
# Revision: 2
# Processed by: cddbd v1.5.2PL0 Copyright (c) Steve Scherf et al.
# Submitted via: Grip 3.3.1
# 
DISCID=d90b4110
DTITLE=The Trailer Park Troubadours - Trailercana
DYEAR=2007
DGENRE=Folk/Rock
TTITLE0=Living in Aluminum
TTITLE1=The Devil Gets More Credit Than He Deserves
TTITLE2=Joan of Arkansas
TTITLE3=DysFUNKtional
TTITLE4=I Was Just Flipped Off by a Silver Haired Old Lady With a 'Honk I
TTITLE4=f You Love Jesus' Sticker on the Bumper of Her Car
TTITLE5=Nothing's Gonna Stop Me Now
TTITLE6=I Wanna Live in a Billboard
TTITLE7=Dora's Dark Side
TTITLE8=Nothing's Gonna Stop Me Now (Reprise)
TTITLE9=KOA Refugee
TTITLE10=Prozac Made Me Stay
TTITLE11=Full Moon Nights in Pine View Heights
TTITLE12=Cubic Zirconium in the Rough
TTITLE13=I Married Up
TTITLE14=Ron Howard's Brother
TTITLE15=Falling in Love in America
EXTD=
EXTT0=
EXTT1=
EXTT2=
EXTT3=
EXTT4=
EXTT5=
EXTT6=
EXTT7=
EXTT8=
EXTT9=
EXTT10=
EXTT11=
EXTT12=
EXTT13=
EXTT14=
EXTT15=
PLAYORDER=
